<svg id="Layer_1" data-name="Layer 1" xmlns="http://www.w3.org/2000/svg" viewBox="0 0 1366 2200"><defs><style>.cls-1{opacity:0.67;}.cls-2{fill:#93278f;}</style></defs><g class="cls-1"><rect class="cls-2" x="305.01" y="48.56" width="100" height="2"/></g><g class="cls-1"><rect class="cls-2" x="65.01" y="87.56" width="150" height="3"/></g><g class="cls-1"><rect class="cls-2" x="812.01" y="56.56" width="164" height="3"/></g><g class="cls-1"><rect class="cls-2" x="29.01" y="162.56" width="396" height="1"/></g><g class="cls-1"><rect class="cls-2" x="600.01" y="310.56" width="50" height="1"/></g><g class="cls-1"><rect class="cls-2" x="842.01" y="246.56" width="50" height="1"/></g><g class="cls-1"><rect class="cls-2" x="305.01" y="361.56" width="100" height="2"/></g><g class="cls-1"><rect class="cls-2" x="877.01" y="168.56" width="450" height="2"/></g><g class="cls-1"><rect class="cls-2" x="98.01" y="258.56" width="150" height="3"/></g><g class="cls-1"><rect class="cls-2" x="406.01" y="210.56" width="164" height="1"/></g><g class="cls-1"><rect class="cls-2" x="1089.01" y="273.56" width="164" height="1"/></g><g class="cls-1"><rect class="cls-2" x="812.01" y="369.56" width="164" height="3"/></g><g class="cls-1"><rect class="cls-2" x="600.01" y="623.56" width="50" height="1"/></g><g class="cls-1"><rect class="cls-2" x="305.01" y="674.56" width="100" height="2"/></g><g class="cls-1"><rect class="cls-2" x="98.01" y="571.56" width="150" height="3"/></g><g class="cls-1"><rect class="cls-2" x="406.01" y="523.56" width="164" height="1"/></g><g class="cls-1"><rect class="cls-2" x="29.01" y="788.56" width="396" height="1"/></g><g class="cls-1"><rect class="cls-2" x="600.01" y="936.56" width="50" height="1"/></g><g class="cls-1"><rect class="cls-2" x="305.01" y="987.56" width="100" height="2"/></g><g class="cls-1"><rect class="cls-2" x="877.01" y="794.56" width="450" height="2"/></g><g class="cls-1"><rect class="cls-2" x="98.01" y="884.56" width="150" height="3"/></g><g class="cls-1"><rect class="cls-2" x="406.01" y="836.56" width="164" height="1"/></g><g class="cls-1"><rect class="cls-2" x="1089.01" y="899.56" width="164" height="1"/></g><g class="cls-1"><rect class="cls-2" x="812.01" y="995.56" width="164" height="3"/></g><g class="cls-1"><rect class="cls-2" x="29.01" y="1101.56" width="396" height="1"/></g><g class="cls-1"><rect class="cls-2" x="600.01" y="1249.56" width="50" height="1"/></g><g class="cls-1"><rect class="cls-2" x="842.01" y="1185.56" width="50" height="1"/></g><g class="cls-1"><rect class="cls-2" x="305.01" y="1300.56" width="100" height="2"/></g><g class="cls-1"><rect class="cls-2" x="877.01" y="1107.56" width="450" height="2"/></g><g class="cls-1"><rect class="cls-2" x="98.01" y="1197.56" width="150" height="3"/></g><g class="cls-1"><rect class="cls-2" x="406.01" y="1149.56" width="164" height="1"/></g><g class="cls-1"><rect class="cls-2" x="1089.01" y="1212.56" width="164" height="1"/></g><g class="cls-1"><rect class="cls-2" x="812.01" y="1308.56" width="164" height="3"/></g><g class="cls-1"><rect class="cls-2" x="1253.01" y="-124.44" width="1" height="396"/></g><g class="cls-1"><rect class="cls-2" x="1053.01" y="151.56" width="2" height="100"/></g><g class="cls-1"><rect class="cls-2" x="1155.01" y="-55.44" width="3" height="150"/></g><g class="cls-1"><rect class="cls-2" x="940.01" y="-124.44" width="1" height="396"/></g><g class="cls-1"><rect class="cls-2" x="689.01" y="130.56" width="1" height="396"/></g><g class="cls-1"><rect class="cls-2" x="489.01" y="406.56" width="2" height="100"/></g><g class="cls-1"><rect class="cls-2" x="591.01" y="199.56" width="3" height="150"/></g><g class="cls-1"><rect class="cls-2" x="376.01" y="130.56" width="1" height="396"/></g><g class="cls-1"><rect class="cls-2" x="1157.01" y="561.56" width="1" height="396"/></g><g class="cls-1"><rect class="cls-2" x="957.01" y="837.56" width="2" height="100"/></g><g class="cls-1"><rect class="cls-2" x="1059.01" y="630.56" width="3" height="150"/></g><g class="cls-1"><rect class="cls-2" x="403.01" y="733.56" width="1" height="396"/></g><g class="cls-1"><rect class="cls-2" x="305.01" y="802.56" width="3" height="150"/></g><g class="cls-1"><rect class="cls-2" x="90.01" y="733.56" width="1" height="396"/></g><g class="cls-1"><rect class="cls-2" x="484.63" y="746.14" width="164" height="1" transform="translate(-361.99 619.36) rotate(-45)"/></g><g class="cls-1"><rect class="cls-2" x="644.63" y="704.21" width="1" height="396" transform="translate(-449 720.42) rotate(-45)"/></g><g class="cls-1"><rect class="cls-2" x="641.7" y="697.14" width="1" height="396"/></g><g class="cls-1"><rect class="cls-2" x="510.01" y="-25.44" width="1" height="164"/></g><g class="cls-1"><rect class="cls-2" x="478.01" y="110.56" width="396" height="1"/></g><g class="cls-1"><rect class="cls-2" x="497.16" y="47.89" width="2" height="100" transform="translate(76.69 380.93) rotate(-45)"/></g><g class="cls-1"><rect class="cls-2" x="668.44" y="-89.86" width="1" height="396" transform="translate(119.46 504.69) rotate(-45)"/></g><g class="cls-1"><rect class="cls-2" x="228.15" y="12.63" width="1" height="50"/></g><g class="cls-1"><rect class="cls-2" x="270.99" y="393.38" width="1" height="50" transform="translate(-216.32 314.52) rotate(-45)"/></g><g class="cls-1"><rect class="cls-2" x="43.17" y="213.88" width="2" height="100" transform="translate(-173.66 108.52) rotate(-45)"/></g><g class="cls-1"><rect class="cls-2" x="295.5" y="506.69" width="150" height="3" transform="translate(-250.82 410.83) rotate(-45)"/></g><g class="cls-1"><rect class="cls-2" x="-18.42" y="393.14" width="396" height="1" transform="translate(-225.75 242.28) rotate(-45)"/></g><g class="cls-1"><rect class="cls-2" x="1019" y="283.39" width="1" height="50" transform="translate(80.54 811.22) rotate(-45)"/></g><g class="cls-1"><rect class="cls-2" x="791.17" y="103.88" width="2" height="100" transform="translate(123.21 605.22) rotate(-45)"/></g><g class="cls-1"><rect class="cls-2" x="1043.5" y="396.69" width="150" height="3" transform="translate(46.04 907.53) rotate(-45)"/></g><g class="cls-1"><rect class="cls-2" x="729.58" y="283.14" width="396" height="1" transform="translate(71.12 738.98) rotate(-45)"/></g><g class="cls-1"><rect class="cls-2" x="1276" y="945.38" width="1" height="50" transform="translate(-312.29 1186.84) rotate(-45)"/></g><g class="cls-1"><rect class="cls-2" x="1048.16" y="765.88" width="2" height="100" transform="translate(-269.62 980.84) rotate(-45)"/></g><g class="cls-1"><rect class="cls-2" x="1124.32" y="1115.4" width="100" height="2" transform="translate(-445.46 1157.36) rotate(-45)"/></g><g class="cls-1"><rect class="cls-2" x="1300.5" y="1058.69" width="150" height="3" transform="translate(-346.79 1283.14) rotate(-45)"/></g><g class="cls-1"><rect class="cls-2" x="986.59" y="945.14" width="396" height="1" transform="translate(-321.71 1114.6) rotate(-45)"/></g><g class="cls-1"><rect class="cls-2" x="29.01" y="436.56" width="396" height="1"/></g><g class="cls-1"><rect class="cls-2" x="842.01" y="520.56" width="50" height="1"/></g><g class="cls-1"><rect class="cls-2" x="305.01" y="635.56" width="100" height="2"/></g><g class="cls-1"><rect class="cls-2" x="877.01" y="442.56" width="450" height="2"/></g><g class="cls-1"><rect class="cls-2" x="1089.01" y="547.56" width="164" height="1"/></g><g class="cls-1"><rect class="cls-2" x="812.01" y="643.56" width="164" height="3"/></g><g class="cls-1"><rect class="cls-2" x="600.01" y="897.56" width="50" height="1"/></g><g class="cls-1"><rect class="cls-2" x="842.01" y="833.56" width="50" height="1"/></g><g class="cls-1"><rect class="cls-2" x="305.01" y="948.56" width="100" height="2"/></g><g class="cls-1"><rect class="cls-2" x="406.01" y="797.56" width="164" height="1"/></g><g class="cls-1"><rect class="cls-2" x="842.01" y="1146.56" width="50" height="1"/></g><g class="cls-1"><rect class="cls-2" x="406.01" y="1110.56" width="164" height="1"/></g><g class="cls-1"><rect class="cls-2" x="29.01" y="1375.56" width="396" height="1"/></g><g class="cls-1"><rect class="cls-2" x="600.01" y="1523.56" width="50" height="1"/></g><g class="cls-1"><rect class="cls-2" x="842.01" y="1459.56" width="50" height="1"/></g><g class="cls-1"><rect class="cls-2" x="305.01" y="1574.56" width="100" height="2"/></g><g class="cls-1"><rect class="cls-2" x="877.01" y="1381.56" width="450" height="2"/></g><g class="cls-1"><rect class="cls-2" x="98.01" y="1471.56" width="150" height="3"/></g><g class="cls-1"><rect class="cls-2" x="406.01" y="1423.56" width="164" height="1"/></g><g class="cls-1"><rect class="cls-2" x="1089.01" y="1486.56" width="164" height="1"/></g><g class="cls-1"><rect class="cls-2" x="812.01" y="1582.56" width="164" height="3"/></g><g class="cls-1"><rect class="cls-2" x="29.01" y="1688.56" width="396" height="1"/></g><g class="cls-1"><rect class="cls-2" x="600.01" y="1836.56" width="50" height="1"/></g><g class="cls-1"><rect class="cls-2" x="842.01" y="1772.56" width="50" height="1"/></g><g class="cls-1"><rect class="cls-2" x="305.01" y="1887.56" width="100" height="2"/></g><g class="cls-1"><rect class="cls-2" x="877.01" y="1694.56" width="450" height="2"/></g><g class="cls-1"><rect class="cls-2" x="98.01" y="1784.56" width="150" height="3"/></g><g class="cls-1"><rect class="cls-2" x="406.01" y="1736.56" width="164" height="1"/></g><g class="cls-1"><rect class="cls-2" x="1089.01" y="1799.56" width="164" height="1"/></g><g class="cls-1"><rect class="cls-2" x="812.01" y="1895.56" width="164" height="3"/></g><g class="cls-1"><rect class="cls-2" x="29.01" y="2001.56" width="396" height="1"/></g><g class="cls-1"><rect class="cls-2" x="600.01" y="2149.56" width="50" height="1"/></g><g class="cls-1"><rect class="cls-2" x="842.01" y="2085.56" width="50" height="1"/></g><g class="cls-1"><rect class="cls-2" x="877.01" y="2007.56" width="450" height="2"/></g><g class="cls-1"><rect class="cls-2" x="98.01" y="2097.56" width="150" height="3"/></g><g class="cls-1"><rect class="cls-2" x="406.01" y="2049.56" width="164" height="1"/></g><g class="cls-1"><rect class="cls-2" x="1089.01" y="2112.56" width="164" height="1"/></g><g class="cls-1"><rect class="cls-2" x="302.01" y="483.56" width="3" height="150"/></g><g class="cls-1"><rect class="cls-2" x="87.01" y="414.56" width="1" height="396"/></g><g class="cls-1"><rect class="cls-2" x="855.01" y="747.56" width="1" height="396"/></g><g class="cls-1"><rect class="cls-2" x="655.01" y="1023.56" width="2" height="100"/></g><g class="cls-1"><rect class="cls-2" x="757.01" y="816.56" width="3" height="150"/></g><g class="cls-1"><rect class="cls-2" x="1253.01" y="1088.56" width="1" height="396"/></g><g class="cls-1"><rect class="cls-2" x="1053.01" y="1364.56" width="2" height="100"/></g><g class="cls-1"><rect class="cls-2" x="1155.01" y="1157.56" width="3" height="150"/></g><g class="cls-1"><rect class="cls-2" x="940.01" y="1088.56" width="1" height="396"/></g><g class="cls-1"><rect class="cls-2" x="689.01" y="1343.56" width="1" height="396"/></g><g class="cls-1"><rect class="cls-2" x="489.01" y="1619.56" width="2" height="100"/></g><g class="cls-1"><rect class="cls-2" x="591.01" y="1412.56" width="3" height="150"/></g><g class="cls-1"><rect class="cls-2" x="376.01" y="1343.56" width="1" height="396"/></g><g class="cls-1"><rect class="cls-2" x="1157.01" y="1774.56" width="1" height="396"/></g><g class="cls-1"><rect class="cls-2" x="957.01" y="2050.56" width="2" height="100"/></g><g class="cls-1"><rect class="cls-2" x="1059.01" y="1843.56" width="3" height="150"/></g><g class="cls-1"><rect class="cls-2" x="844.01" y="1774.56" width="1" height="396"/></g><g class="cls-1"><rect class="cls-2" x="403.01" y="1946.56" width="1" height="396"/></g><g class="cls-1"><rect class="cls-2" x="305.01" y="2015.56" width="3" height="150"/></g><g class="cls-1"><rect class="cls-2" x="90.01" y="1946.56" width="1" height="396"/></g><g class="cls-1"><rect class="cls-2" x="630.99" y="952.39" width="1" height="50" transform="translate(-506.16 732.8) rotate(-45)"/></g><g class="cls-1"><rect class="cls-2" x="403.17" y="772.88" width="2" height="100" transform="translate(-463.48 526.8) rotate(-45)"/></g><g class="cls-1"><rect class="cls-2" x="655.5" y="1065.69" width="150" height="3" transform="translate(-540.66 829.12) rotate(-45)"/></g><g class="cls-1"><rect class="cls-2" x="484.63" y="1959.14" width="164" height="1" transform="translate(-1219.71 974.64) rotate(-45)"/></g><g class="cls-1"><rect class="cls-2" x="644.63" y="1917.21" width="1" height="396" transform="translate(-1306.72 1075.7) rotate(-45)"/></g><g class="cls-1"><rect class="cls-2" x="527.7" y="1930.14" width="2" height="100"/></g><g class="cls-1"><rect class="cls-2" x="641.7" y="1910.14" width="1" height="396"/></g><g class="cls-1"><rect class="cls-2" x="510.01" y="1187.56" width="1" height="164"/></g><g class="cls-1"><rect class="cls-2" x="497.16" y="1260.89" width="2" height="100" transform="translate(-781.03 736.21) rotate(-45)"/></g><g class="cls-1"><rect class="cls-2" x="668.44" y="1123.14" width="1" height="396" transform="translate(-738.26 859.97) rotate(-45)"/></g><g class="cls-1"><rect class="cls-2" x="1271" y="883.38" width="1" height="50" transform="translate(-269.91 1165.14) rotate(-45)"/></g><g class="cls-1"><rect class="cls-2" x="1043.17" y="703.88" width="2" height="100" transform="translate(-227.24 959.14) rotate(-45)"/></g><g class="cls-1"><rect class="cls-2" x="1119.33" y="1053.4" width="100" height="2" transform="translate(-403.08 1135.66) rotate(-45)"/></g><g class="cls-1"><rect class="cls-2" x="1295.5" y="996.69" width="150" height="3" transform="translate(-304.42 1261.45) rotate(-45)"/></g><g class="cls-1"><rect class="cls-2" x="215.14" y="798.42" width="2" height="450" transform="translate(-660.36 452.59) rotate(-45)"/></g><g class="cls-1"><rect class="cls-2" x="160.15" y="1382.63" width="150" height="3"/></g><g class="cls-1"><rect class="cls-2" x="-16.85" y="1167.63" width="396" height="1"/></g><g class="cls-1"><rect class="cls-2" x="633" y="448.38" width="1" height="50" transform="translate(-149.19 586.6) rotate(-45)"/></g><g class="cls-1"><rect class="cls-2" x="405.17" y="268.88" width="2" height="100" transform="translate(-106.52 380.6) rotate(-45)"/></g><g class="cls-1"><rect class="cls-2" x="481.32" y="618.4" width="100" height="2" transform="translate(-282.36 557.12) rotate(-45)"/></g><g class="cls-1"><rect class="cls-2" x="657.5" y="561.68" width="150" height="3" transform="translate(-183.69 682.91) rotate(-45)"/></g><g class="cls-1"><rect class="cls-2" x="270.99" y="1606.38" width="1" height="50" transform="translate(-1074.04 669.8) rotate(-45)"/></g><g class="cls-1"><rect class="cls-2" x="43.17" y="1426.88" width="2" height="100" transform="translate(-1031.38 463.8) rotate(-45)"/></g><g class="cls-1"><rect class="cls-2" x="119.33" y="1776.4" width="100" height="2" transform="translate(-1207.22 640.32) rotate(-45)"/></g><g class="cls-1"><rect class="cls-2" x="295.5" y="1719.69" width="150" height="3" transform="translate(-1108.54 766.11) rotate(-45)"/></g><g class="cls-1"><rect class="cls-2" x="-18.42" y="1606.14" width="396" height="1" transform="translate(-1083.47 597.56) rotate(-45)"/></g><g class="cls-1"><rect class="cls-2" x="1019" y="1496.39" width="1" height="50" transform="translate(-777.18 1166.5) rotate(-45)"/></g><g class="cls-1"><rect class="cls-2" x="791.16" y="1316.88" width="2" height="100" transform="translate(-734.51 960.49) rotate(-45)"/></g><g class="cls-1"><rect class="cls-2" x="867.32" y="1666.4" width="100" height="2" transform="translate(-910.35 1137.02) rotate(-45)"/></g><g class="cls-1"><rect class="cls-2" x="1043.49" y="1609.69" width="150" height="3" transform="translate(-811.68 1262.8) rotate(-45)"/></g><g class="cls-1"><rect class="cls-2" x="729.59" y="1496.14" width="396" height="1" transform="translate(-786.6 1094.26) rotate(-45)"/></g><g class="cls-1"><rect class="cls-2" x="1276" y="2158.38" width="1" height="50" transform="translate(-1170.01 1542.12) rotate(-45)"/></g><g class="cls-1"><rect class="cls-2" x="1048.16" y="1978.88" width="2" height="100" transform="translate(-1127.34 1336.12) rotate(-45)"/></g><g class="cls-1"><rect class="cls-2" x="986.58" y="2158.14" width="396" height="1" transform="translate(-1179.43 1469.87) rotate(-45)"/></g></svg>