<svg xmlns="http://www.w3.org/2000/svg" viewBox="0 0 1366 768"><defs><style>.cls-1{fill:#bfb3ff;}.cls-2,.cls-8{fill:#ffd2fc;}.cls-2{opacity:0.74;}.cls-3,.cls-9{fill:#ddfff7;}.cls-3{opacity:0.67;}.cls-4{fill:#fff;}.cls-5{fill:#e980fc;}.cls-6{fill:#b96ac9;}.cls-7{fill:#231b1b;}</style></defs><g id="Background"><path class="cls-1" d="M382,100.77c126.16-208.9,598.11-160.88,654.09-49.51s25.46,259.54,68,391.63S791.1,947.62,713.6,825.15s-545.86-186.39-446-374.09S382,100.77,382,100.77Z"/><path class="cls-2" d="M365,256.77S408.21,34.63,616.85,66,938.2,210.9,739.15,324.38,434.59,421,365,256.77Z"/><path class="cls-3" d="M316,663.11c134.36-116,282.24-199.92,427.3-139.29s170.29-59,186-173.7,361.08,193.37,107.22,303.16S718.09,709,710.21,640.17,316,663.11,316,663.11Z"/></g><g id="tree"><path class="cls-4" d="M702.66,494.52,376.56,794.76,280,799.33l-4.5,51.12,135.14-6.56,391.09-411S710.85,495.24,702.66,494.52Z"/></g><g id="wings"><g id="legs"><path d="M546.13,536.94s9.13,61.19,4.53,75-14,36-14,36a112.19,112.19,0,0,1,12.11-10.19c2.16-1.54,5.12-4,8-3.84,1.65.08,2.86,1.69,3.93,2.78a64,64,0,0,1,7.21,8.94,26.93,26.93,0,0,1,4.72,11.94v.13a16.08,16.08,0,0,1-2.08,9.9s9.19,3.24,8.17-17.7c.76,1.08,1.48,2.18,2.16,3.31a21.06,21.06,0,0,1,2.77,6c.08-.21.19-.44.25-.66.11-.38.22-.77.32-1.16.19-.75.36-1.51.51-2.26.32-1.55.58-3.1.82-4.66a29.31,29.31,0,0,0,.42-4.17c0-2.32.05-3.35,2.51-1.57a6.12,6.12,0,0,1,2.48,5.5c1-2.42.78-5.15.36-7.73A87.12,87.12,0,0,0,581.91,616a112,112,0,0,1-13.25-57.27A126.16,126.16,0,0,1,571.73,534S547.1,537.91,546.13,536.94Z"/><path d="M604,527.75s4.41,41.61,4.41,44.16S598,589.87,597.21,594c0,0,15.49-3.57,18.13-.93s19.66,13.7,10.47,33.95c0,0,11.23-6.8,11.23-11.91,0,0,6.13,3.06,5.28,7.83,0,0,5.45-9,2.72-15.49,0,0,8,6,8,8.51,0,0,10.22-10.38,1.53-21.11s-15.48-7.49-21.78-16.68-6.3-56.3-6.3-56.3S605.94,527.75,604,527.75Z"/></g><path class="cls-5" d="M1032.19,146.47C1003,168,977.26,193.26,956.45,223c-56.7,81-100,175.08-183.77,232.69-39.22,27-83.16,46.53-128.43,60.9-47.29,15-97.86,25.18-147.62,19.64a690.37,690.37,0,0,1-71.84-12.12L-7.21,755.4l72-44.42L14.23,734,380.5,446.5l45.82-49.56S636.19,189.57,700.64,185.67s87.72-43,87.72-43a69.48,69.48,0,0,1,12.21-10.19h0c.58-.15,10.11-2.56,23.81-5,0,0,99.54,29.48,137.87,17.82h0C1005.69,154.86,1032.19,146.47,1032.19,146.47Z"/><circle cx="881.47" cy="172.6" r="16.68"/><ellipse class="cls-4" cx="887.3" cy="173.45" rx="5.57" ry="5.03"/><ellipse class="cls-4" cx="887.9" cy="162.77" rx="2.07" ry="1.51"/><path class="cls-5" d="M730.25,296.21c-13.79,9.29-25.82,15.79-36.33,20.08-25.85,10.56-42.44,7.78-53.07.38-17-11.82-18.74-35.42-18.74-35.42,15.16,3,40.55,6.19,62.59.74.52.61,15,17.24,41.63,8.67A32.4,32.4,0,0,0,730.25,296.21Z"/><path class="cls-6" d="M618.73,348.68c-9.45,8.7-18.51,11.69-26.75,11.36a34.21,34.21,0,0,1-12.7-3.13C563,349.58,552.19,332,552.19,332c6.32-1.44,13.34-5.21,20.72-12.77a68.29,68.29,0,0,0,20.76,5.26A73.29,73.29,0,0,0,618.73,348.68Z"/><path class="cls-7" d="M579.28,356.91c-15.78,10.91-29.53,17.73-41.48,21.6-13.43,4.34-24.57,5-33.71,3.48h0a49.41,49.41,0,0,1-36.32-26.49c9.69-2.47,21.81-10.77,36.59-29.57a52.48,52.48,0,0,0,18.14-3.63c.48.53,12.53,13.63,29.69,9.7C552.19,332,563,349.58,579.28,356.91Z"/><path class="cls-8" d="M572.91,319.22c-7.38,7.56-14.4,11.33-20.72,12.77-17.16,3.93-29.21-9.17-29.69-9.7,8.62-3.24,18.28-8.89,29-17.87A67.52,67.52,0,0,0,572.91,319.22Z"/><path class="cls-9" d="M605.16,385.81c-59,19.68-67.36-7.3-67.36-7.3,12-3.87,25.7-10.69,41.48-21.6A34.21,34.21,0,0,0,592,360C592,360.53,591.8,375.85,605.16,385.81Z"/><path class="cls-9" d="M767.36,198.63c-82.72,30.67-113.6-7.93-114.23-8.72,2.13-.49,4.25-.95,6.38-1.39,24.63-5.08,53.35-12,78-3.73A141.06,141.06,0,0,1,767.36,198.63Z"/><path class="cls-6" d="M539.85,437.33a548.49,548.49,0,0,1-76.94,9.33,78.83,78.83,0,0,1-38-8.75h0a59.56,59.56,0,0,1-15.62-11.34c14.41,1.64,32.54-1.49,51.78-17.5a29.07,29.07,0,0,0,17.48,9.69C478.55,419.3,477.94,438.05,539.85,437.33Z"/><path class="cls-6" d="M334,467.41c8.5-12.59,17.3-25.83,28.47-36.25.71-.66,18,6,19.67,6.42,13.84,3.34,26.39,3.34,40.33,1.21a10.91,10.91,0,0,1,3.22-.17,11.69,11.69,0,0,1,3.05,1.08,78.55,78.55,0,0,0,34.17,6.94"/><path class="cls-7" d="M425,437.91c-27.2,9-62.49-6.75-62.49-6.75a139.25,139.25,0,0,0,15.1-17.41,65,65,0,0,0,31.77,12.81h0A59.56,59.56,0,0,0,425,437.91Z"/><path class="cls-6" d="M482.17,372.68c-54,41.61-77.71,4.32-77.71,4.32,8.68-11.67,19-25.05,31.77-40.26,0,0,9.56,24.36,31.54,18.75A48.57,48.57,0,0,0,482.17,372.68Z"/><path class="cls-8" d="M504.36,325.92c-14.78,18.8-26.9,27.1-36.59,29.57-22,5.61-31.54-18.75-31.54-18.75,8.72-10.42,18.58-21.71,29.82-33.91C466.05,302.83,478.21,326.15,504.36,325.92Z"/><path class="cls-6" d="M680.44,386.18c-8.42,4.75-16.86,9.13-25.19,13.14a490.64,490.64,0,0,1-46,18.94c-1.46.53-2.93,1.05-4.39,1.56l-.14,0c-48.06,14.5-73.83,1-87.2-13.75A59.66,59.66,0,0,1,504.09,382c9.14,1.48,20.28.86,33.71-3.48,0,0,8.35,27,67.36,7.3h0C616.86,394.55,638.89,399.16,680.44,386.18Z"/><path class="cls-8" d="M604.72,419.86a469.53,469.53,0,0,1-64.84,17.47h0c-61.91.72-61.3-18-61.26-18.57a29.07,29.07,0,0,1-17.48-9.69c-19.24,16-37.37,19.14-51.78,17.5h0a65,65,0,0,1-31.77-12.81c7.37-9.68,15.8-21.83,26.9-36.75,0,0,23.74,37.29,77.71-4.32a48.78,48.78,0,0,0,21.92,9.3h0a59.66,59.66,0,0,0,13.43,24.12C530.89,420.86,556.66,434.36,604.72,419.86Z"/><path class="cls-7" d="M726.4,355.93a383.56,383.56,0,0,1-45.94,30.24h0c-41.55,13-63.58,8.37-75.27-.37h0C591.8,375.85,592,360.53,592,360c8.24.33,17.3-2.66,26.75-11.36,14.3,8.27,34.79,13,61.6,2.35C688.74,359.69,702.84,364.88,726.4,355.93Z"/><path class="cls-9" d="M767.41,317.65a278.11,278.11,0,0,1-41,38.28c-23.56,8.95-37.66,3.76-46.07-4.9-26.81,10.69-47.3,5.92-61.6-2.35a73.29,73.29,0,0,1-25.06-24.2c13,1.24,28.58-.67,47.18-7.81,10.63,7.4,27.22,10.18,53.07-.38C694.49,317.06,721.67,352.61,767.41,317.65Z"/><path class="cls-7" d="M577.38,276c-16.77,7.18-29.92,8.85-40.12,7.69-23.73-2.72-31.42-20.85-31.42-20.85q10.8-9.42,22.44-17.78l0,0a.45.45,0,0,1,.07.07l.12.12c.07.07.16.17.27.27a2.23,2.23,0,0,1,.21.22l.53.53.28.27c.39.39.86.83,1.4,1.34l.68.64c.44.4.92.85,1.44,1.3.21.2.43.4.66.59,1.68,1.5,3.71,3.23,6,5.08.24.2.5.39.75.59l1.8,1.38.71.54.8.59c.3.22.59.44.88.64s.6.44.9.65c3.2,2.28,6.76,4.62,10.6,6.84l1.85,1c1.15.64,2.33,1.27,3.53,1.87.61.31,1.22.63,1.85.92.39.2.78.38,1.18.57s.92.43,1.38.63l1.77.78c.55.24,1.11.47,1.66.69s.87.36,1.32.52l1.25.49,1.28.46,1.27.45c.51.16,1,.34,1.52.49Z"/><path class="cls-8" d="M640.85,316.67c-18.6,7.14-34.2,9.05-47.18,7.81a68.29,68.29,0,0,1-20.76-5.26,67.52,67.52,0,0,1-21.4-14.8,70,70,0,0,1-14.25-20.71c10.2,1.16,23.35-.51,40.12-7.69l.19.06,2,.56,1.4.37c.5.13,1,.24,1.51.36s.75.18,1.13.25c.55.13,1.12.24,1.67.34l1.35.25c.53.09,1,.18,1.57.25.85.13,1.7.23,2.55.32l.84.09,1.07.1.83.06c1.11.07,2.22.11,3.34.13h1.34c1.5,0,3-.09,4.5-.22s3-.31,4.44-.57c.51-.07,1-.17,1.53-.26,0,0,5.22,1.52,13.48,3.14C622.11,281.25,623.89,304.85,640.85,316.67Z"/><path class="cls-6" d="M551.51,304.42c-10.73,9-20.39,14.63-29,17.87a52.48,52.48,0,0,1-18.14,3.63c-26.15.23-38.31-23.09-38.31-23.09q10.18-11.06,21.94-23.11,5.24-5.36,10.72-10.45,3.51-3.25,7.13-6.41s7.69,18.13,31.42,20.85A70,70,0,0,0,551.51,304.42Z"/><path class="cls-9" d="M652.39,246.67c-13.84,19.44-29,28.56-43.76,31.44-.51.09-1,.19-1.53.26q-2.22.39-4.44.57c-1.5.13-3,.2-4.5.22h-1.34c-1.12,0-2.23-.06-3.34-.13l-.83-.06-1.07-.1-.84-.09c-.85-.09-1.7-.19-2.55-.32-.52-.07-1-.16-1.57-.25l-1.35-.25c-.55-.1-1.12-.21-1.67-.34-.38-.07-.76-.16-1.13-.25s-1-.23-1.51-.36l-1.4-.37-2-.56-.19-.06-1.07-.34c-.51-.15-1-.33-1.52-.49l-1.27-.45-1.28-.46-1.25-.49c-.45-.16-.89-.34-1.32-.52s-1.11-.45-1.66-.69l-1.77-.78c-.46-.2-.92-.42-1.38-.63s-.79-.37-1.18-.57c-.63-.3-1.24-.61-1.85-.92-1.2-.6-2.38-1.23-3.53-1.87l-1.85-1c-3.84-2.22-7.4-4.56-10.6-6.84-.3-.21-.61-.43-.9-.65s-.58-.42-.88-.64l-.8-.59-.71-.54-1.8-1.38c-.25-.2-.51-.39-.75-.59-2.34-1.85-4.37-3.58-6-5.08-.23-.19-.45-.39-.66-.59-.52-.45-1-.9-1.44-1.3l-.68-.64c-.54-.51-1-1-1.4-1.34a3.43,3.43,0,0,0-.28-.27l-.53-.53a2.23,2.23,0,0,0-.21-.22l-.27-.27-.12-.12a.45.45,0,0,0-.07-.07l0,0a317.63,317.63,0,0,1,28-18S592.48,258.42,652.39,246.67Z"/><path class="cls-5" d="M706.31,226c-19.56,11.07-37.62,17.46-53.92,20.65-59.91,11.75-96.13-19.58-96.13-19.58q12.6-7.22,25.82-13.3c4.87-2.24,9.77-4.36,14.74-6.37h0c.81.62,42.64,31.86,98.93,11.51A56.28,56.28,0,0,0,706.31,226Z"/><path class="cls-6" d="M800,251.24c-.34,13.61-5.3,26.9-12.32,38.64-31,28.8-49.78,15.2-57.39,6.33a32.4,32.4,0,0,1-3.92-5.55c-26.6,8.57-41.11-8.06-41.63-8.67-22,5.45-47.43,2.22-62.59-.74-8.26-1.62-13.48-3.14-13.48-3.14,14.79-2.88,29.92-12,43.76-31.44,16.3-3.19,34.36-9.58,53.92-20.65,2,1.08,4.25,2.18,6.78,3.25,0,0-20.32,28.35,30.63,29.92S800,251.24,800,251.24Z"/><path class="cls-7" d="M787.64,289.88a198.82,198.82,0,0,1-20.23,27.77c-45.74,35-72.92-.59-73.49-1.36,10.51-4.29,22.54-10.79,36.33-20.08C737.86,305.08,756.67,318.68,787.64,289.88Z"/><path class="cls-7" d="M800,251.24s-5.27,9.51-56.24,7.95-30.63-29.92-30.63-29.92c16.49,7,44.24,12.3,81-3.64A50.22,50.22,0,0,1,800,248C800,249.07,800,250.15,800,251.24Z"/><path class="cls-8" d="M794.07,225.63c-36.74,15.94-64.49,10.61-81,3.64-2.53-1.07-4.79-2.17-6.78-3.25a56.28,56.28,0,0,1-10.55-7.09c-56.29,20.35-98.12-10.89-98.93-11.51a360.11,360.11,0,0,1,56.3-17.51c.63.79,31.51,39.39,114.23,8.72C778.47,205.63,788.2,214.52,794.07,225.63Z"/></g><g id="Shadows"><path class="cls-8" d="M835.34,297.36s-96.51,137.87-218.3,154C617,451.32,754.91,433.7,835.34,297.36Z"/><path d="M955.34,173.45s71.49-26,76.85-27C1032.19,146.47,1002.5,160.81,955.34,173.45Z"/><path class="cls-7" d="M846.83,325.7S707.43,495,493.72,504.17C493.72,504.17,708.19,511.06,846.83,325.7Z"/><path class="cls-7" d="M911.85,127.92c-23.67-9.28-62.47-4.87-87.44-.46-13.7,2.42-23.23,4.83-23.81,5,17.34-11.78,52.83-27.17,104.7-7.67C907.51,125.87,909.69,126.91,911.85,127.92Z"/><path class="cls-6" d="M918.52,276.48S683.89,550.83,508.13,537.2C508.13,537.2,759.67,574,918.52,276.48Z"/><path class="cls-6" d="M368.11,505.7,194.23,622.13S363,513.7,368.11,505.7Z"/><path class="cls-6" d="M807.26,181.11,862.4,177s-16.34,6.13-19.4,9.19,22.81.68,22.81.68l-10.55,8.17s22.12.34,32-2.72S924,181.45,924,181.45L903.26,192l29.61-2-29.61,12.59h19.06s-25.19,15-58.55,12.6-39.49-14.3-52.77-14.3c0,0,16.6-3.32,19.06-4.25,0,0-5.53-4.86-16.59-4.86s-17.79-9.53-17.79-9.53Z"/><path class="cls-6" d="M962.28,145.28a52.56,52.56,0,0,1-6.43,1.49c-2.41.41-4.84.7-7.27.89-2.66.21-5.33.31-8,.34q-4.29,0-8.58-.14-4.51-.2-9-.57c-3.12-.26-6.23-.58-9.34-.94s-6.35-.79-9.52-1.25-6.39-1-9.58-1.49-6.32-1.1-9.48-1.69-6.18-1.19-9.26-1.82-5.95-1.24-8.91-1.89q-4.21-.93-8.42-1.91-3.9-.92-7.8-1.87c-2.34-.57-4.69-1.16-7-1.76-2.06-.52-4.1-1-6.15-1.59l-5.12-1.38q-3-.82-6-1.57a9.32,9.32,0,0,1-1.19-.26c-.51-.21,0-.47.26-.57A8.23,8.23,0,0,1,827,127l2.63-.44c1.83-.3,3.67-.59,5.5-.86q5.86-.85,11.75-1.54c4.12-.46,8.25-.85,12.39-1.14s8.42-.49,12.64-.56,8.31,0,12.46.22c4,.22,7.93.6,11.86,1.21a82.25,82.25,0,0,1,10.87,2.37c1.61.48,3.21,1,4.78,1.64s3.13,1.44,4.68,2.12A241.19,241.19,0,0,0,962.28,145.28Z"/><polygon class="cls-6" points="370.77 454.13 64.79 710.98 14.23 733.96 370.77 454.13"/><polygon class="cls-6" points="424.79 524.09 -7.21 755.4 273.64 597.62 424.79 524.09"/></g></svg>