<svg id="Layer_1" data-name="Layer 1" xmlns="http://www.w3.org/2000/svg" viewBox="0 0 300 300"><defs><style>.cls-1{fill:#1b75bb;}.cls-2{fill:#fde169;}</style></defs><rect class="cls-1" x="-4.57" y="-3.81" width="314.81" height="316.34"/><path class="cls-2" d="M150.13,64.6c-21.54,17.56-41.69,4.65-60.64,20.22-3,2.44-7.71,10.65-17.16,27.07C61,131.54,55.36,141.36,54,149.27c-2.74,16.22,1.86,38.45,16.4,51.11,15,13,26.32,3.65,64.07,14.11,30,8.3,31.7,16.67,51.87,17.16,20.65.51,48.22-7.54,53-23.65,4-13.34-11.59-19.11-14.12-44.62-1.79-18.15,5.58-20.32,5-41.57-.25-8.63-.85-29.37-14.87-46.91C202.76,59.15,179.4,46,163.1,52.78,156.84,55.37,157.85,58.31,150.13,64.6Z"/><path class="cls-2" d="M84.62,20.28S178.91,14.83,232.7,35.6s46.64,102.8,46.64,102.8S281,17.55,84.62,20.28Z"/><path class="cls-2" d="M157.81,38.32S80.14,9.38,53.27,66.91C53.27,66.91,78.83,28.45,157.81,38.32Z"/><path class="cls-2" d="M44.11,65.21S-19.28,210.36,99.26,222.15C99.26,222.15,5.64,229.64,44.11,65.21Z"/><path class="cls-2" d="M88,58.06S59.77,60.79,56.7,89.72C56.7,89.72,66.57,69,88,58.06Z"/><path class="cls-2" d="M40.7,211.6s55.83,53.78,130,37.44C170.74,249,109.47,259.6,40.7,211.6Z"/><path class="cls-2" d="M130.91,226.91S178.57,264,238.49,250.74C238.49,250.74,188.79,259.26,130.91,226.91Z"/><path class="cls-2" d="M243.94,104s42.21,27.58,27.23,67.07C271.17,171.09,276.62,141.47,243.94,104Z"/><path class="cls-2" d="M287.85,148.62s15,73.67-63.32,91.64C224.53,240.26,288.87,218.74,287.85,148.62Z"/><path class="cls-2" d="M7.34,194.44s4.09,59,52.77,85.58C60.11,280,8.36,219.84,7.34,194.44Z"/><path class="cls-2" d="M56.7,245.3s35.41,47.32,139.24,44.25C195.94,289.55,123.77,291.6,56.7,245.3Z"/><path class="cls-2" d="M179.26,267.5s86.12.95,106.21-31.05C285.47,236.45,246.66,265.87,179.26,267.5Z"/><path class="cls-2" d="M217.38,301.13s85.11-18,99.41-63.66C316.79,237.47,262.66,296.7,217.38,301.13Z"/><path class="cls-2" d="M57.38,28.79S17.21,37,7,85.3C7,85.3,21,45.13,57.38,28.79Z"/><path class="cls-2" d="M83.26-14.45s-86.47,4.77-121.54,81C-38.28,66.57,17.89-6.62,83.26-14.45Z"/><path class="cls-2" d="M175.68,4.62s73,0,89.36,22.47C265,27.09,218.06,7.68,175.68,4.62Z"/><path class="cls-2" d="M208.87-27s118,37.27,143,113.36C351.85,86.32,259.17-19.64,208.87-27Z"/></svg>